<svg width="21" height="20" viewBox="0 0 21 20" fill="none" xmlns="http://www.w3.org/2000/svg">
<g id="Icons">
<path id="Icon" d="M4.82666 12.5C4.05009 12.5 3.66181 12.5 3.35552 12.3731C2.94714 12.2039 2.62268 11.8795 2.45353 11.4711C2.32666 11.1648 2.32666 10.7765 2.32666 9.99996V4.33329C2.32666 3.39987 2.32666 2.93316 2.50832 2.57664C2.6681 2.26304 2.92307 2.00807 3.23668 1.84828C3.5932 1.66663 4.05991 1.66663 4.99333 1.66663H10.66C11.4366 1.66663 11.8248 1.66663 12.1311 1.79349C12.5395 1.96265 12.864 2.28711 13.0331 2.69549C13.16 3.00177 13.16 3.39006 13.16 4.16663M10.8267 18.3333H16.3267C17.2601 18.3333 17.7268 18.3333 18.0833 18.1516C18.3969 17.9918 18.6519 17.7369 18.8117 17.4233C18.9933 17.0668 18.9933 16.6 18.9933 15.6666V10.1666C18.9933 9.23321 18.9933 8.7665 18.8117 8.40998C18.6519 8.09637 18.3969 7.8414 18.0833 7.68162C17.7268 7.49996 17.2601 7.49996 16.3267 7.49996H10.8267C9.89324 7.49996 9.42653 7.49996 9.07001 7.68162C8.75641 7.8414 8.50144 8.09637 8.34165 8.40998C8.15999 8.7665 8.15999 9.23321 8.15999 10.1666V15.6666C8.15999 16.6 8.15999 17.0668 8.34165 17.4233C8.50144 17.7369 8.75641 17.9918 9.07001 18.1516C9.42653 18.3333 9.89324 18.3333 10.8267 18.3333Z" stroke="#344054" stroke-width="1.67" stroke-linecap="round" stroke-linejoin="round"/>
</g>
</svg>
