<svg width="200" height="189" viewBox="0 0 200 189" fill="none" xmlns="http://www.w3.org/2000/svg">
<g id="documents/rafiki">
<g id="background-simple">
<path id="Vector" d="M43.668 129.342C47.3808 130.399 51.3027 130.489 55.0599 129.601C58.8171 128.714 62.2844 126.879 65.1314 124.271C70.9169 119.021 78.8714 116.734 86.3244 117.117C99.608 117.754 111.511 124.835 122.576 129.905C127.713 132.271 133.026 134.553 138.856 135.657C152.94 138.344 165.761 131.392 176.15 121.353C197.557 100.684 203.218 66.6189 196.74 43.0486C192.492 27.613 170.764 -2.79071 142.507 0.206282C115.697 3.0568 131.843 41.9219 106.486 45.7019C78.4714 49.8819 77.4799 6.11576 43.1554 12.0647C12.1715 17.439 -3.25853 44.9414 6.41972 67.4977C11.1462 78.5111 20.1935 87.1809 25.0101 98.0816C30.1816 109.782 27.8888 124.593 43.668 129.342Z" fill="#2E90FA"/>
<path id="Vector_2" opacity="0.8" d="M43.668 129.342C47.3808 130.399 51.3027 130.489 55.0599 129.601C58.8171 128.714 62.2844 126.879 65.1314 124.271C70.9169 119.021 78.8714 116.734 86.3244 117.117C99.608 117.754 111.511 124.835 122.576 129.905C127.713 132.271 133.026 134.553 138.856 135.657C152.94 138.344 165.761 131.392 176.15 121.353C197.557 100.684 203.218 66.6189 196.74 43.0486C192.492 27.613 170.764 -2.79071 142.507 0.206282C115.697 3.0568 131.843 41.9219 106.486 45.7019C78.4714 49.8819 77.4799 6.11576 43.1554 12.0647C12.1715 17.439 -3.25853 44.9414 6.41972 67.4977C11.1462 78.5111 20.1935 87.1809 25.0101 98.0816C30.1816 109.782 27.8888 124.593 43.668 129.342Z" fill="white"/>
</g>
<g id="Documents">
<path id="Vector_3" d="M67.7286 80.6291C67.4139 79.2631 66.6453 78.0443 65.5485 77.1715C64.4516 76.2987 63.0913 75.8236 61.6896 75.8237H16.6221C14.9786 75.8237 13.4024 76.4766 12.2403 77.6387C11.0782 78.8009 10.4253 80.377 10.4253 82.0205V182.194C10.4253 183.838 11.0782 185.414 12.2403 186.576C13.4024 187.738 14.9786 188.391 16.6221 188.391H159.711C161.355 188.391 162.931 187.738 164.093 186.576C165.255 185.414 165.908 183.838 165.908 182.194V98.0476C165.908 96.4042 165.255 94.828 164.093 93.6659C162.931 92.5037 161.355 91.8509 159.711 91.8509H81.8291C78.5559 91.8514 75.3793 90.7419 72.8181 88.7037C70.257 86.6654 68.4628 83.8189 67.7286 80.6291Z" fill="#2E90FA"/>
<path id="Vector_4" opacity="0.6" d="M67.7286 80.6291C67.4139 79.2631 66.6453 78.0443 65.5485 77.1715C64.4516 76.2987 63.0913 75.8236 61.6896 75.8237H16.6221C14.9786 75.8237 13.4024 76.4766 12.2403 77.6387C11.0782 78.8009 10.4253 80.377 10.4253 82.0205V182.194C10.4253 183.838 11.0782 185.414 12.2403 186.576C13.4024 187.738 14.9786 188.391 16.6221 188.391H159.711C161.355 188.391 162.931 187.738 164.093 186.576C165.255 185.414 165.908 183.838 165.908 182.194V98.0476C165.908 96.4042 165.255 94.828 164.093 93.6659C162.931 92.5037 161.355 91.8509 159.711 91.8509H81.8291C78.5559 91.8514 75.3793 90.7419 72.8181 88.7037C70.257 86.6654 68.4628 83.8189 67.7286 80.6291Z" fill="black"/>
<path id="Vector_5" opacity="0.22" d="M51.8203 49.4309L55.837 62.4385C56.3497 64.094 57.4985 65.4783 59.0312 66.2874C60.5638 67.0965 62.3549 67.2642 64.0111 66.7537L77.013 62.7371L51.8203 49.4309Z" fill="#2E90FA"/>
<path id="Vector_6" d="M51.82 49.4309L5.34418 63.7905C4.52374 64.0426 3.76104 64.4539 3.09972 65.001C2.4384 65.5481 1.89144 66.2202 1.49013 66.9789C1.08881 67.7376 0.841013 68.568 0.760916 69.4225C0.680819 70.277 0.769992 71.139 1.02333 71.959L27.5568 157.858C27.8101 158.678 28.2224 159.44 28.7703 160.101C29.3182 160.762 29.9909 161.308 30.75 161.709C31.509 162.109 32.3396 162.357 33.1943 162.436C34.0489 162.516 34.9109 162.426 35.7309 162.173L95.2144 143.797C96.0344 143.544 96.7965 143.132 97.4572 142.585C98.1179 142.038 98.6642 141.365 99.065 140.607C99.4657 139.848 99.7131 139.018 99.7928 138.164C99.8725 137.309 99.7831 136.448 99.5296 135.628L76.9959 62.7371L51.82 49.4309Z" fill="#2E90FA"/>
<path id="Vector_7" opacity="0.8" d="M51.82 49.4309L5.34418 63.7905C4.52374 64.0426 3.76104 64.4539 3.09972 65.001C2.4384 65.5481 1.89144 66.2202 1.49013 66.9789C1.08881 67.7376 0.841013 68.568 0.760916 69.4225C0.680819 70.277 0.769992 71.139 1.02333 71.959L27.5568 157.858C27.8101 158.678 28.2224 159.44 28.7703 160.101C29.3182 160.762 29.9909 161.308 30.75 161.709C31.509 162.109 32.3396 162.357 33.1943 162.436C34.0489 162.516 34.9109 162.426 35.7309 162.173L95.2144 143.797C96.0344 143.544 96.7965 143.132 97.4572 142.585C98.1179 142.038 98.6642 141.365 99.065 140.607C99.4657 139.848 99.7131 139.018 99.7928 138.164C99.8725 137.309 99.7831 136.448 99.5296 135.628L76.9959 62.7371L51.82 49.4309Z" fill="white"/>
<g id="Group" opacity="0.28">
<path id="Vector_8" d="M76.8265 140.045L38.1586 151.988C37.4354 152.21 36.6538 152.136 35.9845 151.784C35.3152 151.431 34.8127 150.828 34.587 150.106C34.3668 149.383 34.4417 148.602 34.7953 147.934C35.1489 147.266 35.7524 146.765 36.4742 146.54L75.1421 134.591C75.866 134.37 76.6483 134.444 77.3177 134.797C77.9871 135.151 78.4891 135.756 78.7137 136.479C78.9338 137.202 78.859 137.983 78.5054 138.651C78.1518 139.319 77.5482 139.82 76.8265 140.045Z" fill="#2E90FA"/>
</g>
<g id="Group_2" opacity="0.28">
<path id="Vector_9" d="M35.2131 69.9535L14.7637 76.2686C14.0406 76.4892 13.2596 76.4152 12.5907 76.0628C11.9218 75.7104 11.4192 75.1082 11.1921 74.387C10.9718 73.6631 11.0465 72.8815 11.4 72.2125C11.7535 71.5435 12.3572 71.0413 13.0793 70.8154L33.5287 64.5003C34.2518 64.2767 35.0342 64.3492 35.7039 64.702C36.3736 65.0548 36.8758 65.659 37.1003 66.3819C37.3206 67.1058 37.2459 67.8874 36.8924 68.5564C36.5389 69.2255 35.9353 69.7276 35.2131 69.9535Z" fill="#2E90FA"/>
</g>
<g id="Group_3" opacity="0.28">
<path id="Vector_10" d="M51.8993 76.6522L18.0986 87.0909C17.377 87.3077 16.599 87.2311 15.9335 86.8778C15.268 86.5244 14.7687 85.9229 14.5439 85.2037C14.322 84.4813 14.3954 83.7004 14.748 83.0321C15.1007 82.3637 15.7039 81.8623 16.4255 81.6378L50.2261 71.199C50.9493 70.9769 51.7309 71.0502 52.4002 71.4027C53.0695 71.7553 53.5719 72.3586 53.7977 73.0806C54.016 73.806 53.939 74.5882 53.5835 75.2571C53.2279 75.926 52.6226 76.4274 51.8993 76.6522Z" fill="#2E90FA"/>
</g>
<g id="Group_4" opacity="0.28">
<path id="Vector_11" d="M70.77 82.6737L21.4436 97.884C20.7212 98.1059 19.9403 98.0325 19.272 97.6798C18.6036 97.3272 18.1022 96.724 17.8777 96.0024C17.6571 95.2793 17.7311 94.4983 18.0834 93.8294C18.4358 93.1605 19.0381 92.6578 19.7592 92.4308L69.0856 77.2205C69.808 77.0001 70.5882 77.0742 71.2562 77.4267C71.9242 77.7791 72.4258 78.3814 72.6516 79.1021C72.8737 79.8252 72.8005 80.6069 72.4479 81.2762C72.0953 81.9455 71.492 82.4479 70.77 82.6737Z" fill="#2E90FA"/>
</g>
<g id="Group_5" opacity="0.28">
<path id="Vector_12" d="M74.1123 93.4899L45.4381 102.351C44.7149 102.571 43.9341 102.497 43.266 102.143C42.5979 101.789 42.0968 101.186 41.8721 100.464C41.6517 99.7417 41.7258 98.9614 42.0783 98.2935C42.4307 97.6255 43.033 97.1239 43.7537 96.8981L72.4279 88.0367C73.1518 87.8179 73.9327 87.8933 74.6013 88.2466C75.27 88.5999 75.7723 89.2026 75.9995 89.9239C76.2196 90.647 76.1448 91.4279 75.7912 92.096C75.4376 92.7641 74.834 93.2652 74.1123 93.4899Z" fill="#2E90FA"/>
</g>
<g id="Group_6" opacity="0.28">
<path id="Vector_13" d="M32.2891 106.413L24.791 108.728C24.0679 108.951 23.2862 108.877 22.6169 108.525C21.9476 108.172 21.4452 107.569 21.2194 106.847C20.9975 106.123 21.0715 105.341 21.4253 104.671C21.779 104.002 22.3835 103.5 23.1066 103.275L30.6047 100.96C31.3278 100.739 32.1088 100.813 32.7777 101.166C33.4466 101.518 33.9493 102.12 34.1763 102.842C34.3951 103.565 34.3196 104.346 33.9664 105.015C33.6131 105.684 33.0104 106.186 32.2891 106.413Z" fill="#2E90FA"/>
</g>
<g id="Group_7" opacity="0.28">
<path id="Vector_14" d="M77.4573 104.312L28.1309 119.551C27.4077 119.771 26.6269 119.696 25.9588 119.342C25.2907 118.989 24.7896 118.385 24.5649 117.663C24.343 116.941 24.4164 116.16 24.769 115.492C25.1217 114.823 25.7249 114.322 26.4465 114.098L75.7729 98.8591C76.4953 98.6387 77.2755 98.7128 77.9435 99.0652C78.6114 99.4177 79.113 100.02 79.3388 100.741C79.5609 101.464 79.4877 102.245 79.1351 102.915C78.7825 103.584 78.1793 104.086 77.4573 104.312Z" fill="#2E90FA"/>
</g>
<g id="Group_8" opacity="0.28">
<path id="Vector_15" d="M61.7634 121.009L31.4724 130.366C30.7501 130.587 29.9698 130.513 29.3018 130.16C28.6339 129.808 28.1323 129.206 27.9065 128.485C27.6859 127.762 27.7599 126.981 28.1123 126.312C28.4646 125.643 29.0669 125.14 29.788 124.913L60.079 115.556C60.8029 115.336 61.5846 115.411 62.2536 115.764C62.9226 116.118 63.4248 116.721 63.6506 117.443C63.8723 118.166 63.7982 118.948 63.4444 119.617C63.0906 120.285 62.4861 120.786 61.7634 121.009Z" fill="#2E90FA"/>
</g>
<g id="Group_9" opacity="0.28">
<path id="Vector_16" d="M80.7982 115.134L72.7142 117.629C71.9903 117.85 71.2087 117.775 70.5397 117.421C69.8707 117.068 69.3685 116.464 69.1426 115.742C68.9225 115.019 68.9974 114.238 69.3509 113.57C69.7045 112.902 70.3081 112.401 71.0298 112.176L79.1138 109.681C79.8362 109.459 80.6171 109.532 81.2855 109.885C81.9539 110.237 82.4552 110.841 82.6798 111.562C82.9019 112.285 82.8286 113.067 82.476 113.736C82.1235 114.405 81.5202 114.908 80.7982 115.134Z" fill="#2E90FA"/>
</g>
<g id="Group_10" opacity="0.28">
<path id="Vector_17" d="M84.1381 125.961L34.823 141.172C34.0992 141.394 33.3168 141.32 32.6474 140.966C31.978 140.612 31.476 140.008 31.2514 139.284C31.0297 138.561 31.1039 137.78 31.4577 137.111C31.8115 136.443 32.416 135.942 33.1386 135.719L82.4594 120.48C83.1833 120.261 83.9642 120.337 84.6328 120.69C85.3015 121.043 85.8038 121.646 86.031 122.367C86.1441 122.727 86.1849 123.107 86.1509 123.483C86.1169 123.859 86.0088 124.224 85.8328 124.558C85.6569 124.892 85.4166 125.188 85.1257 125.429C84.8348 125.67 84.4992 125.851 84.1381 125.961Z" fill="#2E90FA"/>
</g>
<path id="Vector_18" d="M85.1984 17.1289L99.9468 49.9944C100.33 50.8523 100.357 51.8269 100.024 52.7052C99.6902 53.5835 99.0225 54.294 98.1666 54.6814L35.6016 82.7641C34.7439 83.1485 33.7687 83.177 32.89 82.8432C32.0113 82.5095 31.3009 81.8408 30.9146 80.9839L16.1606 48.1184C15.7745 47.2601 15.745 46.2835 16.0789 45.4035C16.4127 44.5234 17.0825 43.812 17.9408 43.4258L80.5058 15.3431C81.3652 14.9604 82.3412 14.9333 83.2205 15.268C84.0998 15.6026 84.8109 16.2716 85.1984 17.1289Z" fill="#2E90FA"/>
<path id="Vector_19" opacity="0.3" d="M85.1984 17.1289L99.9468 49.9944C100.33 50.8523 100.357 51.8269 100.024 52.7052C99.6902 53.5835 99.0225 54.294 98.1666 54.6814L35.6016 82.7641C34.7439 83.1485 33.7687 83.177 32.89 82.8432C32.0113 82.5095 31.3009 81.8408 30.9146 80.9839L16.1606 48.1184C15.7745 47.2601 15.745 46.2835 16.0789 45.4035C16.4127 44.5234 17.0825 43.812 17.9408 43.4258L80.5058 15.3431C81.3652 14.9604 82.3412 14.9333 83.2205 15.268C84.0998 15.6026 84.8109 16.2716 85.1984 17.1289Z" fill="black"/>
<path id="Vector_20" d="M75.3378 15.5048L73.3384 16.4017L73.5689 16.9157L75.5684 16.0188L75.3378 15.5048Z" fill="#2E90FA"/>
<path id="Vector_21" d="M70.5385 17.6552L64.3037 20.452L64.5343 20.966L70.7691 18.1692L70.5385 17.6552Z" fill="#2E90FA"/>
<path id="Vector_22" d="M16.1047 51.4306L15.5908 51.6614L17.2984 55.4644L17.8123 55.2336L16.1047 51.4306Z" fill="#2E90FA"/>
<path id="Vector_23" opacity="0.6" d="M83.1024 15.2248L66.9682 46.8284C65.4711 49.7576 63.0194 52.0884 60.0181 53.4353C57.0169 54.7823 53.6459 55.0649 50.4623 54.2364L16.1265 45.2848C16.4787 44.461 17.1255 43.7981 17.9404 43.4258L80.5054 15.3431C81.3249 14.9766 82.2529 14.9344 83.1024 15.2248Z" fill="#2E90FA"/>
<path id="Vector_24" d="M105.282 55.6729L56.7325 58.6698C55.8748 58.7208 55.0356 58.9404 54.2629 59.3161C53.4901 59.6918 52.7991 60.2162 52.2293 60.8593C51.6595 61.5024 51.222 62.2515 50.9421 63.0639C50.6621 63.8762 50.5451 64.7357 50.5977 65.5933L56.1354 155.323C56.187 156.181 56.4075 157.021 56.7843 157.793C57.161 158.566 57.6865 159.257 58.3307 159.827C58.975 160.396 59.7252 160.833 60.5385 161.112C61.3518 161.39 62.2121 161.506 63.0701 161.452L125.207 157.616C126.064 157.564 126.902 157.344 127.673 156.968C128.445 156.591 129.134 156.067 129.703 155.424C130.271 154.78 130.707 154.031 130.985 153.219C131.264 152.408 131.379 151.549 131.325 150.692L126.649 74.5449L105.282 55.6729Z" fill="#2E90FA"/>
<path id="Vector_25" opacity="0.8" d="M105.282 55.6729L56.7325 58.6698C55.8748 58.7208 55.0356 58.9404 54.2629 59.3161C53.4901 59.6918 52.7991 60.2162 52.2293 60.8593C51.6595 61.5024 51.222 62.2515 50.9421 63.0639C50.6621 63.8762 50.5451 64.7357 50.5977 65.5933L56.1354 155.323C56.187 156.181 56.4075 157.021 56.7843 157.793C57.161 158.566 57.6865 159.257 58.3307 159.827C58.975 160.396 59.7252 160.833 60.5385 161.112C61.3518 161.39 62.2121 161.506 63.0701 161.452L125.207 157.616C126.064 157.564 126.902 157.344 127.673 156.968C128.445 156.591 129.134 156.067 129.703 155.424C130.271 154.78 130.707 154.031 130.985 153.219C131.264 152.408 131.379 151.549 131.325 150.692L126.649 74.5449L105.282 55.6729Z" fill="white"/>
<g id="Group_11" opacity="0.22">
<path id="Vector_26" d="M108.217 149.621L67.8196 152.117C67.065 152.16 66.3239 151.903 65.7581 151.402C65.1924 150.9 64.848 150.196 64.8001 149.441C64.7569 148.687 65.0131 147.946 65.5131 147.379C66.0131 146.813 66.7165 146.467 67.4704 146.416L107.868 143.926C108.622 143.881 109.364 144.137 109.931 144.637C110.498 145.138 110.844 145.842 110.893 146.596C110.938 147.352 110.681 148.094 110.18 148.661C109.678 149.228 108.972 149.574 108.217 149.621Z" fill="#2E90FA"/>
</g>
<g id="Group_12" opacity="0.22">
<path id="Vector_27" d="M84.3081 71.7001L62.9405 73.007C62.1862 73.0503 61.4452 72.7941 60.8787 72.2941C60.3123 71.7941 59.966 71.0907 59.9153 70.3368C59.8721 69.5815 60.1291 68.8398 60.6303 68.2732C61.1315 67.7065 61.8363 67.3609 62.5912 67.3116L83.9589 65.9934C84.713 65.9487 85.4541 66.2046 86.02 66.705C86.5859 67.2055 86.9305 67.9097 86.9784 68.6637C87.0262 69.4202 86.7719 70.1649 86.2713 70.7342C85.7707 71.3035 85.0646 71.6509 84.3081 71.7001Z" fill="#2E90FA"/>
</g>
<g id="Group_13" opacity="0.22">
<path id="Vector_28" d="M98.9438 82.1441L63.639 84.3186C62.884 84.3649 62.1414 84.1097 61.5742 83.6091C61.0071 83.1085 60.6617 82.4033 60.6139 81.6484C60.5692 80.8928 60.8256 80.1502 61.3271 79.5832C61.8286 79.0163 62.5343 78.6711 63.2898 78.6232L98.5889 76.4487C99.344 76.4024 100.087 76.6576 100.654 77.1582C101.221 77.6588 101.566 78.364 101.614 79.119C101.659 79.8737 101.403 80.6154 100.903 81.1822C100.403 81.749 99.6982 82.0948 98.9438 82.1441Z" fill="#2E90FA"/>
</g>
<g id="Group_14" opacity="0.22">
<path id="Vector_29" d="M115.861 92.4483L64.3373 95.6255C63.5802 95.6718 62.8356 95.4162 62.2665 94.9147C61.6974 94.4132 61.3502 93.7066 61.3009 92.9496C61.2562 92.1955 61.5121 91.4544 62.0125 90.8885C62.513 90.3226 63.2172 89.978 63.9712 89.9301L115.5 86.7472C116.255 86.704 116.996 86.9612 117.562 87.4626C118.127 87.9639 118.472 88.6687 118.52 89.4231C118.565 90.176 118.31 90.9161 117.813 91.4826C117.315 92.0491 116.613 92.3962 115.861 92.4483Z" fill="#2E90FA"/>
</g>
<g id="Group_15" opacity="0.22">
<path id="Vector_30" d="M116.56 103.749L86.6067 105.597C85.852 105.641 85.1102 105.386 84.5434 104.885C83.9766 104.385 83.6308 103.681 83.5815 102.926C83.5352 102.171 83.7904 101.429 84.291 100.861C84.7916 100.294 85.4968 99.9489 86.2518 99.9011L116.205 98.0533C116.96 98.0071 117.702 98.2622 118.27 98.7628C118.837 99.2634 119.182 99.9686 119.23 100.724C119.275 101.478 119.019 102.22 118.519 102.787C118.018 103.354 117.314 103.699 116.56 103.749Z" fill="#2E90FA"/>
</g>
<g id="Group_16" opacity="0.22">
<path id="Vector_31" d="M72.867 106.441L65.0309 106.926C64.2768 106.971 63.5356 106.715 62.9697 106.214C62.4038 105.714 62.0592 105.009 62.0114 104.256C61.9666 103.501 62.2223 102.759 62.7226 102.192C63.2229 101.625 63.9272 101.28 64.6816 101.23L72.5177 100.746C73.273 100.703 74.0147 100.96 74.5814 101.461C75.148 101.962 75.4936 102.667 75.5429 103.422C75.5861 104.176 75.3289 104.918 74.8276 105.483C74.3262 106.049 73.6214 106.393 72.867 106.441Z" fill="#2E90FA"/>
</g>
<g id="Group_17" opacity="0.22">
<path id="Vector_32" d="M117.258 115.049L65.7286 118.226C64.9739 118.271 64.2321 118.015 63.6653 117.515C63.0985 117.015 62.7527 116.31 62.7034 115.556C62.6602 114.801 62.9172 114.059 63.4184 113.492C63.9196 112.926 64.6244 112.58 65.3793 112.531L116.903 109.354C117.658 109.309 118.401 109.565 118.968 110.067C119.535 110.568 119.88 111.274 119.928 112.03C119.973 112.784 119.717 113.525 119.216 114.091C118.716 114.657 118.012 115.001 117.258 115.049Z" fill="#2E90FA"/>
</g>
<g id="Group_18" opacity="0.22">
<path id="Vector_33" d="M98.0703 127.578L66.4273 129.533C65.672 129.576 64.9303 129.319 64.3637 128.818C63.797 128.317 63.4514 127.612 63.4021 126.857C63.359 126.102 63.6161 125.361 64.1175 124.795C64.6188 124.23 65.3236 123.885 66.078 123.837L97.721 121.883C98.4757 121.839 99.2168 122.097 99.7826 122.598C100.348 123.099 100.693 123.804 100.741 124.558C100.787 125.313 100.531 126.055 100.031 126.621C99.53 127.187 98.8248 127.532 98.0703 127.578Z" fill="#2E90FA"/>
</g>
<g id="Group_19" opacity="0.22">
<path id="Vector_34" d="M117.951 126.356L109.5 126.874C108.746 126.919 108.005 126.663 107.439 126.162C106.873 125.662 106.529 124.958 106.481 124.204C106.435 123.449 106.69 122.706 107.19 122.139C107.691 121.572 108.396 121.226 109.151 121.179L117.601 120.66C118.356 120.614 119.099 120.869 119.666 121.37C120.233 121.871 120.579 122.576 120.626 123.331C120.67 124.086 120.413 124.828 119.912 125.394C119.41 125.961 118.705 126.307 117.951 126.356Z" fill="#2E90FA"/>
</g>
<g id="Group_20" opacity="0.22">
<path id="Vector_35" d="M118.649 137.656L67.1254 140.834C66.3707 140.878 65.6289 140.623 65.0621 140.122C64.4953 139.622 64.1495 138.918 64.1002 138.163C64.0555 137.409 64.3112 136.667 64.8115 136.1C65.3118 135.533 66.0161 135.187 66.7705 135.138L118.3 131.961C119.054 131.916 119.795 132.172 120.361 132.673C120.927 133.173 121.271 133.877 121.319 134.631C121.365 135.386 121.11 136.129 120.61 136.696C120.109 137.263 119.404 137.609 118.649 137.656Z" fill="#2E90FA"/>
</g>
<path id="Vector_36" opacity="0.22" d="M105.281 55.6729L106.121 69.2607C106.173 70.1174 106.394 70.9554 106.77 71.7269C107.146 72.4983 107.671 73.188 108.314 73.7567C108.957 74.3253 109.705 74.7618 110.517 75.041C111.329 75.3203 112.187 75.4369 113.044 75.3843L126.649 74.5449L105.281 55.6729Z" fill="#2E90FA"/>
<path id="Vector_37" opacity="0.5" d="M89.3835 89.5692C89.375 88.9181 89.2361 88.2752 88.975 87.6787C88.7138 87.0821 88.3358 86.544 87.8631 86.096C87.3905 85.6481 86.8328 85.2994 86.2232 85.0706C85.6135 84.8418 84.9641 84.7375 84.3134 84.7639H39.1896C35.7701 84.7639 32.4295 87.5412 31.7873 90.9607L13.98 182.194C13.3152 185.614 15.5461 188.391 18.9656 188.391H162.055C165.474 188.391 168.787 185.619 169.457 182.194L184.144 106.988C184.808 103.563 182.578 100.791 179.158 100.791H101.298C94.5381 100.791 89.6145 96.1378 89.3835 89.5692Z" fill="#2E90FA"/>
</g>
</g>
</svg>
