<svg width="346" height="247" viewBox="0 0 346 247" fill="none" xmlns="http://www.w3.org/2000/svg">
<path d="M201.773 23.3566V65.8667C201.773 71.6306 201.773 74.5125 203.341 76.714C204.721 78.6505 206.922 80.225 209.629 81.2117C212.707 82.3334 216.736 82.3334 224.795 82.3334H284.228M288.105 102.796V177.017C288.105 194.308 288.105 202.954 283.4 209.559C279.262 215.368 272.658 220.091 264.536 223.052C255.302 226.417 243.215 226.417 219.039 226.417H126.951C102.776 226.417 90.6882 226.417 81.4544 223.052C73.3322 220.091 66.7286 215.368 62.5901 209.559C57.8853 202.954 57.8853 194.308 57.8853 177.017V69.9834C57.8853 52.6918 57.8853 44.0459 62.5901 37.4414C66.7286 31.6319 73.3322 26.9086 81.4544 23.9485C90.6882 20.5834 102.776 20.5834 126.951 20.5834H173.165C183.723 20.5834 189.002 20.5834 193.97 21.4365C198.374 22.1928 202.585 23.4403 206.447 25.1331C210.803 27.0425 214.536 29.7124 222.002 35.0523L267.876 67.8644C275.342 73.2043 279.075 75.8743 281.744 78.9901C284.111 81.7525 285.855 84.7642 286.913 87.9146C288.105 91.4679 288.105 95.2438 288.105 102.796Z" stroke="#667085" stroke-width="12" stroke-linecap="round" stroke-linejoin="round"/>
</svg>
