<svg width="57" height="56" viewBox="0 0 57 56" fill="none" xmlns="http://www.w3.org/2000/svg">
<rect x="4.65991" y="4" width="48" height="48" rx="24" fill="#D1E9FF"/>
<rect x="4.65991" y="4" width="48" height="48" rx="24" stroke="#EFF8FF" stroke-width="8"/>
<path d="M29.6599 23L28.5444 20.7689C28.2233 20.1268 28.0628 19.8057 27.8233 19.5712C27.6115 19.3637 27.3562 19.206 27.076 19.1093C26.7591 19 26.4001 19 25.6822 19H21.8599C20.7398 19 20.1798 19 19.7519 19.218C19.3756 19.4097 19.0696 19.7157 18.8779 20.092C18.6599 20.5198 18.6599 21.0799 18.6599 22.2V23M18.6599 23H33.8599C35.5401 23 36.3801 23 37.0219 23.327C37.5864 23.6146 38.0453 24.0735 38.3329 24.638C38.6599 25.2798 38.6599 26.1198 38.6599 27.8V32.2C38.6599 33.8802 38.6599 34.7202 38.3329 35.362C38.0453 35.9265 37.5864 36.3854 37.0219 36.673C36.3801 37 35.5401 37 33.8599 37H23.4599C21.7798 37 20.9397 37 20.2979 36.673C19.7335 36.3854 19.2745 35.9265 18.9869 35.362C18.6599 34.7202 18.6599 33.8802 18.6599 32.2V23Z" stroke="#1570EF" stroke-width="2" stroke-linecap="round" stroke-linejoin="round"/>
</svg>
