<svg width="229" height="165" viewBox="0 0 229 165" fill="none" xmlns="http://www.w3.org/2000/svg">
<circle cx="117" cy="80" r="80" fill="#B2DDFF"/>
<circle cx="33" cy="20" r="8" fill="#D1E9FF"/>
<circle cx="205" cy="126" r="6" fill="#D1E9FF"/>
<circle cx="32" cy="138" r="10" fill="#D1E9FF"/>
<circle cx="217" cy="38" r="10" fill="#D1E9FF"/>
<circle cx="198" cy="11" r="7" fill="#D1E9FF"/>
<g filter="url(#filter0_dd_722_3142)">
<path d="M63.0783 124.214L115.53 99.7552C118.163 98.5272 119.302 95.3969 118.074 92.7634L87.0988 26.3361L66.1234 18.7017L23.2087 38.7132C20.5753 39.9412 19.4359 43.0715 20.6639 45.7049L56.0865 121.669C57.3145 124.302 60.4448 125.442 63.0783 124.214Z" fill="url(#paint0_linear_722_3142)"/>
<path d="M66.123 18.7017L87.0984 26.3361L72.7935 33.0066L66.123 18.7017Z" fill="#84CAFF"/>
</g>
<g filter="url(#filter1_dd_722_3142)">
<path d="M88.1514 106.339H146.025C148.931 106.339 151.286 103.984 151.286 101.078V27.7837L135.502 12H88.1514C85.2457 12 82.8901 14.3555 82.8901 17.2612V101.078C82.8901 103.984 85.2457 106.339 88.1514 106.339Z" fill="url(#paint1_linear_722_3142)"/>
<path d="M135.502 12L151.286 27.7837H135.502V12Z" fill="#84CAFF"/>
</g>
<g filter="url(#filter2_dd_722_3142)">
<path d="M117.911 99.724L170.362 124.182C172.996 125.41 176.126 124.271 177.354 121.638L208.33 55.2103L200.695 34.2349L157.781 14.2235C155.147 12.9955 152.017 14.1348 150.789 16.7683L115.366 92.7322C114.138 95.3657 115.278 98.496 117.911 99.724Z" fill="url(#paint2_linear_722_3142)"/>
<path d="M200.695 34.2349L208.33 55.2102L194.025 48.5398L200.695 34.2349Z" fill="#84CAFF"/>
</g>
<g filter="url(#filter3_b_722_3142)">
<rect x="89" y="88" width="56" height="56" rx="28" fill="#2F7CF6"/>
<g clip-path="url(#clip0_722_3142)">
<path d="M121.667 120.667L117 116M117 116L112.334 120.667M117 116V126.5M126.789 123.455C127.926 122.835 128.825 121.853 129.343 120.665C129.861 119.477 129.969 118.15 129.649 116.894C129.33 115.638 128.601 114.525 127.578 113.729C126.555 112.933 125.296 112.501 124 112.5H122.53C122.177 111.134 121.519 109.866 120.605 108.791C119.691 107.716 118.546 106.862 117.255 106.294C115.963 105.726 114.56 105.457 113.15 105.509C111.74 105.561 110.361 105.932 109.115 106.594C107.869 107.256 106.789 108.192 105.957 109.331C105.125 110.47 104.562 111.783 104.31 113.171C104.059 114.559 104.125 115.987 104.504 117.345C104.884 118.704 105.566 119.959 106.5 121.017" stroke="white" stroke-width="2.33333" stroke-linecap="round" stroke-linejoin="round"/>
</g>
</g>
<defs>
<filter id="filter0_dd_722_3142" x="-1.55957" y="12.0312" width="141.857" height="154.406" filterUnits="userSpaceOnUse" color-interpolation-filters="sRGB">
<feFlood flood-opacity="0" result="BackgroundImageFix"/>
<feColorMatrix in="SourceAlpha" type="matrix" values="0 0 0 0 0 0 0 0 0 0 0 0 0 0 0 0 0 0 127 0" result="hardAlpha"/>
<feMorphology radius="4" operator="erode" in="SourceAlpha" result="effect1_dropShadow_722_3142"/>
<feOffset dy="8"/>
<feGaussianBlur stdDeviation="4"/>
<feColorMatrix type="matrix" values="0 0 0 0 0.0627451 0 0 0 0 0.0941176 0 0 0 0 0.156863 0 0 0 0.03 0"/>
<feBlend mode="normal" in2="BackgroundImageFix" result="effect1_dropShadow_722_3142"/>
<feColorMatrix in="SourceAlpha" type="matrix" values="0 0 0 0 0 0 0 0 0 0 0 0 0 0 0 0 0 0 127 0" result="hardAlpha"/>
<feMorphology radius="4" operator="erode" in="SourceAlpha" result="effect2_dropShadow_722_3142"/>
<feOffset dy="20"/>
<feGaussianBlur stdDeviation="12"/>
<feColorMatrix type="matrix" values="0 0 0 0 0.0627451 0 0 0 0 0.0941176 0 0 0 0 0.156863 0 0 0 0.08 0"/>
<feBlend mode="normal" in2="effect1_dropShadow_722_3142" result="effect2_dropShadow_722_3142"/>
<feBlend mode="normal" in="SourceGraphic" in2="effect2_dropShadow_722_3142" result="shape"/>
</filter>
<filter id="filter1_dd_722_3142" x="62.8901" y="12" width="108.396" height="134.339" filterUnits="userSpaceOnUse" color-interpolation-filters="sRGB">
<feFlood flood-opacity="0" result="BackgroundImageFix"/>
<feColorMatrix in="SourceAlpha" type="matrix" values="0 0 0 0 0 0 0 0 0 0 0 0 0 0 0 0 0 0 127 0" result="hardAlpha"/>
<feMorphology radius="4" operator="erode" in="SourceAlpha" result="effect1_dropShadow_722_3142"/>
<feOffset dy="8"/>
<feGaussianBlur stdDeviation="4"/>
<feColorMatrix type="matrix" values="0 0 0 0 0.0627451 0 0 0 0 0.0941176 0 0 0 0 0.156863 0 0 0 0.03 0"/>
<feBlend mode="normal" in2="BackgroundImageFix" result="effect1_dropShadow_722_3142"/>
<feColorMatrix in="SourceAlpha" type="matrix" values="0 0 0 0 0 0 0 0 0 0 0 0 0 0 0 0 0 0 127 0" result="hardAlpha"/>
<feMorphology radius="4" operator="erode" in="SourceAlpha" result="effect2_dropShadow_722_3142"/>
<feOffset dy="20"/>
<feGaussianBlur stdDeviation="12"/>
<feColorMatrix type="matrix" values="0 0 0 0 0.0627451 0 0 0 0 0.0941176 0 0 0 0 0.156863 0 0 0 0.08 0"/>
<feBlend mode="normal" in2="effect1_dropShadow_722_3142" result="effect2_dropShadow_722_3142"/>
<feBlend mode="normal" in="SourceGraphic" in2="effect2_dropShadow_722_3142" result="shape"/>
</filter>
<filter id="filter2_dd_722_3142" x="93.1426" y="12" width="141.857" height="154.406" filterUnits="userSpaceOnUse" color-interpolation-filters="sRGB">
<feFlood flood-opacity="0" result="BackgroundImageFix"/>
<feColorMatrix in="SourceAlpha" type="matrix" values="0 0 0 0 0 0 0 0 0 0 0 0 0 0 0 0 0 0 127 0" result="hardAlpha"/>
<feMorphology radius="4" operator="erode" in="SourceAlpha" result="effect1_dropShadow_722_3142"/>
<feOffset dy="8"/>
<feGaussianBlur stdDeviation="4"/>
<feColorMatrix type="matrix" values="0 0 0 0 0.0627451 0 0 0 0 0.0941176 0 0 0 0 0.156863 0 0 0 0.03 0"/>
<feBlend mode="normal" in2="BackgroundImageFix" result="effect1_dropShadow_722_3142"/>
<feColorMatrix in="SourceAlpha" type="matrix" values="0 0 0 0 0 0 0 0 0 0 0 0 0 0 0 0 0 0 127 0" result="hardAlpha"/>
<feMorphology radius="4" operator="erode" in="SourceAlpha" result="effect2_dropShadow_722_3142"/>
<feOffset dy="20"/>
<feGaussianBlur stdDeviation="12"/>
<feColorMatrix type="matrix" values="0 0 0 0 0.0627451 0 0 0 0 0.0941176 0 0 0 0 0.156863 0 0 0 0.08 0"/>
<feBlend mode="normal" in2="effect1_dropShadow_722_3142" result="effect2_dropShadow_722_3142"/>
<feBlend mode="normal" in="SourceGraphic" in2="effect2_dropShadow_722_3142" result="shape"/>
</filter>
<filter id="filter3_b_722_3142" x="81" y="80" width="72" height="72" filterUnits="userSpaceOnUse" color-interpolation-filters="sRGB">
<feFlood flood-opacity="0" result="BackgroundImageFix"/>
<feGaussianBlur in="BackgroundImageFix" stdDeviation="4"/>
<feComposite in2="SourceAlpha" operator="in" result="effect1_backgroundBlur_722_3142"/>
<feBlend mode="normal" in="SourceGraphic" in2="effect1_backgroundBlur_722_3142" result="shape"/>
</filter>
<linearGradient id="paint0_linear_722_3142" x1="59.9968" y1="124.418" x2="18.1972" y2="49.0089" gradientUnits="userSpaceOnUse">
<stop stop-color="#D1E3FF"/>
<stop offset="1" stop-color="white"/>
</linearGradient>
<linearGradient id="paint1_linear_722_3142" x1="85.272" y1="105.223" x2="79.2583" y2="19.2131" gradientUnits="userSpaceOnUse">
<stop stop-color="#D1E3FF"/>
<stop offset="1" stop-color="white"/>
</linearGradient>
<linearGradient id="paint2_linear_722_3142" x1="115.773" y1="97.4951" x2="146.672" y2="17.0024" gradientUnits="userSpaceOnUse">
<stop stop-color="#D1E3FF"/>
<stop offset="1" stop-color="white"/>
</linearGradient>
<clipPath id="clip0_722_3142">
<rect width="28" height="28" fill="white" transform="translate(103 102)"/>
</clipPath>
</defs>
</svg>
