<svg width="56" height="56" viewBox="0 0 56 56" fill="none" xmlns="http://www.w3.org/2000/svg">
<rect x="4" y="4" width="48" height="48" rx="24" fill="#D1E9FF"/>
<path d="M32.2 37H22.9314C22.3256 37 22.0226 37 21.8824 36.8802C21.7607 36.7763 21.6961 36.6203 21.7086 36.4608C21.7231 36.2769 21.9373 36.0627 22.3657 35.6343L30.8686 27.1314C31.2646 26.7354 31.4627 26.5373 31.691 26.4632C31.8918 26.3979 32.1082 26.3979 32.309 26.4632C32.5373 26.5373 32.7354 26.7354 33.1314 27.1314L37 31V32.2M32.2 37C33.8802 37 34.7202 37 35.362 36.673C35.9265 36.3854 36.3854 35.9265 36.673 35.362C37 34.7202 37 33.8802 37 32.2M32.2 37H23.8C22.1198 37 21.2798 37 20.638 36.673C20.0735 36.3854 19.6146 35.9265 19.327 35.362C19 34.7202 19 33.8802 19 32.2V23.8C19 22.1198 19 21.2798 19.327 20.638C19.6146 20.0735 20.0735 19.6146 20.638 19.327C21.2798 19 22.1198 19 23.8 19H32.2C33.8802 19 34.7202 19 35.362 19.327C35.9265 19.6146 36.3854 20.0735 36.673 20.638C37 21.2798 37 22.1198 37 23.8V32.2M26.5 24.5C26.5 25.6046 25.6046 26.5 24.5 26.5C23.3954 26.5 22.5 25.6046 22.5 24.5C22.5 23.3954 23.3954 22.5 24.5 22.5C25.6046 22.5 26.5 23.3954 26.5 24.5Z" stroke="#1570EF" stroke-width="2" stroke-linecap="round" stroke-linejoin="round"/>
<rect x="4" y="4" width="48" height="48" rx="24" stroke="#EFF8FF" stroke-width="8"/>
</svg>
