<svg width="20" height="21" viewBox="0 0 20 21" fill="none" xmlns="http://www.w3.org/2000/svg">
<path d="M17.5 7.69995L17.5 2.69995M17.5 2.69995H12.5M17.5 2.69995L10.8333 9.36662M8.33333 4.36662H6.5C5.09987 4.36662 4.3998 4.36662 3.86502 4.6391C3.39462 4.87878 3.01217 5.26124 2.77248 5.73164C2.5 6.26642 2.5 6.96649 2.5 8.36662V13.7C2.5 15.1001 2.5 15.8001 2.77248 16.3349C3.01217 16.8053 3.39462 17.1878 3.86502 17.4275C4.3998 17.7 5.09987 17.7 6.5 17.7H11.8333C13.2335 17.7 13.9335 17.7 14.4683 17.4275C14.9387 17.1878 15.3212 16.8053 15.5608 16.3349C15.8333 15.8001 15.8333 15.1001 15.8333 13.7V11.8666" stroke="#1570EF" stroke-width="1.67" stroke-linecap="round" stroke-linejoin="round"/>
</svg>
