<svg width="56" height="56" viewBox="0 0 56 56" fill="none" xmlns="http://www.w3.org/2000/svg">
<g clip-path="url(#clip0_552_30883)">
<mask id="mask0_552_30883" style="mask-type:luminance" maskUnits="userSpaceOnUse" x="0" y="0" width="56" height="56">
<path d="M56 0H0V56H56V0Z" fill="white"/>
</mask>
<g mask="url(#mask0_552_30883)">
<path d="M40.3851 54.491C40.3439 54.7535 40.2191 55.0171 40.0111 55.283C39.8029 55.5486 39.554 55.6503 39.2638 55.5889C39.1027 55.5547 38.9344 55.4609 38.7588 55.3074C37.6991 54.424 36.4284 53.6118 34.9466 52.8712C33.4591 52.168 31.9173 51.4918 30.3215 50.843C28.7578 50.2011 27.2321 49.5284 25.7446 48.8251C24.2512 48.1592 22.9687 47.4221 21.8972 46.6137C22.014 47.1421 22.1455 47.5764 22.2918 47.9173C22.438 48.2583 22.5579 48.5547 22.6515 48.8072C22.7772 49.0663 22.8738 49.2994 22.941 49.5074C23.0023 49.7528 23.0066 50.0442 22.9536 50.3813C22.9065 50.6811 22.7746 50.8857 22.5578 50.9947C22.3409 51.1032 22.1359 51.1371 21.9426 51.096C21.556 51.0141 21.1813 50.6442 20.8185 49.9859C20.488 49.3348 20.1648 48.5307 19.8491 47.5729C19.5334 46.6152 19.2324 45.5634 18.9461 44.4187C18.6979 43.2427 18.476 42.1112 18.2805 41.024C18.085 39.9371 17.9231 38.9539 17.7948 38.0746C17.6723 37.158 17.5981 36.4643 17.572 35.9942L16.9989 25.6491C17.0166 25.5366 17.0562 25.3902 17.1178 25.2096C17.2117 25.0359 17.3699 24.8759 17.5927 24.7296C17.5109 24.4024 17.4965 24.0702 17.5494 23.7329C17.7141 22.6836 18.3796 21.8375 19.5458 21.1945C20.7179 20.5141 22.0758 20.0281 23.6197 19.7364C25.2016 19.4141 26.8245 19.2555 28.4882 19.2603C30.1519 19.2652 31.5476 19.3874 32.6751 19.627C32.9974 19.6954 33.4745 19.8355 34.1072 20.0473C34.7455 20.2217 35.3533 20.4863 35.93 20.8412C36.5391 21.2029 37.0307 21.6753 37.4053 22.2582C37.818 22.8106 37.9598 23.499 37.8301 24.3235C37.7066 25.1105 37.2111 25.9346 36.3436 26.7959C35.5082 27.664 34.4868 28.5507 33.2793 29.456C32.0719 30.3612 30.778 31.2868 29.398 32.2327C28.0235 33.1413 26.7268 34.0857 25.5076 35.0659C24.2944 36.0087 23.2451 36.9672 22.3599 37.9409C21.5127 38.8838 21.0156 39.824 20.8686 40.7608C20.7568 41.4728 20.9145 42.1646 21.3417 42.8362C21.807 43.4773 22.41 44.0895 23.1507 44.6728C23.8914 45.256 24.7053 45.7969 25.5925 46.2952C26.5119 46.8 27.3757 47.2354 28.184 47.6008C29.0243 47.9729 29.7418 48.28 30.3362 48.5227C30.9686 48.7345 31.3495 48.8541 31.4782 48.8815C31.897 48.9703 32.6132 49.1806 33.6265 49.512C34.6397 49.8434 35.6543 50.272 36.6705 50.7977C37.7246 51.2926 38.635 51.8537 39.402 52.4815C40.1693 53.1089 40.4968 53.779 40.3851 54.491ZM35.5501 23.8972C35.5914 23.6349 35.5138 23.3861 35.3179 23.1508C35.1277 22.878 34.848 22.6444 34.4789 22.4499C34.1482 22.2247 33.7601 22.0454 33.315 21.9121C32.908 21.7482 32.495 21.6218 32.0765 21.5328C31.432 21.396 30.6411 21.3441 29.7039 21.3774C28.7666 21.4106 27.8041 21.4966 26.817 21.6355C25.8621 21.7811 24.9715 21.9405 24.1454 22.1135C23.3192 22.2865 22.7113 22.4478 22.3217 22.5974C21.5745 22.9034 20.8347 23.2691 20.1022 23.6943C19.3755 24.0821 18.971 24.5383 18.8886 25.063C18.8768 25.1379 18.9134 25.2232 18.9983 25.3186C19.0831 25.4141 19.1109 25.5555 19.0814 25.7429C19.0461 25.9678 19.0516 26.5692 19.0978 27.5471C19.1499 28.4876 19.2137 29.5661 19.289 30.7826C19.3703 31.9615 19.4676 33.144 19.5811 34.3299C19.7267 35.5226 19.8755 36.4838 20.0273 37.2129C21.6894 35.32 23.404 33.7283 25.1711 32.4388C26.9763 31.1182 28.6202 29.9766 30.1031 29.0136C31.5918 28.0132 32.8284 27.1335 33.8131 26.3745C34.8359 25.5849 35.4149 24.7592 35.5501 23.8972Z" fill="black" stroke="black"/>
<path d="M55.4937 48.8129C55.4469 49.1127 55.3794 49.331 55.2913 49.467C55.2091 49.5657 55.0336 49.6251 54.764 49.6453C54.4562 49.6964 54.0652 49.7489 53.5907 49.803C53.1541 49.8263 52.6665 49.8583 52.1275 49.8986C51.5943 49.9017 51.0451 49.9013 50.4799 49.8971C49.9526 49.8628 49.4637 49.7973 49.0124 49.7017C48.4649 49.5855 47.8587 49.4179 47.1939 49.1992C46.5615 48.9874 45.9508 48.7413 45.3623 48.4617C44.7797 48.144 44.2452 47.8369 43.7592 47.5402C43.3112 47.2125 42.9982 46.875 42.8197 46.5272C42.857 47.3485 42.8786 48.1665 42.8839 48.9805C42.8891 49.795 42.8622 50.6026 42.8033 51.403C42.7738 51.5905 42.6988 51.7489 42.5786 51.8785C42.4968 51.9771 42.2783 51.9889 41.924 51.9135C41.7629 51.8792 41.608 51.8076 41.4586 51.6983C41.3473 51.5588 41.2667 51.3287 41.2173 51.0084C41.045 50.1973 40.9124 49.4525 40.8191 48.7745C40.7316 48.0586 40.6602 47.3466 40.6052 46.6377C40.582 45.936 40.5489 45.1931 40.5057 44.4091C40.4621 43.6255 40.3982 42.76 40.3138 41.8125C40.189 40.2758 40.0626 38.6419 39.9349 36.9108C39.813 35.1424 39.7086 33.4742 39.6218 31.907C39.5409 30.302 39.495 28.8981 39.4839 27.6953C39.479 26.4551 39.5147 25.5913 39.5913 25.1041C39.6264 24.8793 39.6735 24.5795 39.7325 24.2047C39.8235 23.8368 39.9276 23.4911 40.0449 23.1675C40.2004 22.8132 40.3603 22.5374 40.5243 22.3399C40.7267 22.1118 40.9566 22.0251 41.2143 22.0799C41.3755 22.1141 41.4894 22.4481 41.5566 23.0819C41.6617 23.6851 41.7226 24.3564 41.7396 25.0958C41.795 25.8046 41.8208 26.4878 41.8176 27.1454C41.8523 27.7724 41.8667 28.1046 41.8608 28.1421C41.8601 28.994 41.8611 29.9429 41.8631 30.9889C41.9037 32.0045 41.941 33.0384 41.9754 34.0914C42.0098 35.1443 42.0665 36.1634 42.1447 37.1481C42.2292 38.0952 42.3501 38.915 42.5079 39.6068C42.5989 39.2388 42.7967 38.7192 43.102 38.0483C43.4072 37.3775 43.7854 36.6639 44.237 35.9077C44.6886 35.1519 45.1753 34.3839 45.6973 33.6041C46.2573 32.7935 46.8025 32.0769 47.3331 31.4536C47.8957 30.8376 48.422 30.3491 48.9112 29.9884C49.4329 29.6345 49.8871 29.4986 50.2736 29.5807C50.8856 29.7107 51.2898 29.8934 51.4859 30.1287C51.7142 30.3708 51.8078 30.623 51.7666 30.8853C51.7312 31.1102 51.387 31.5016 50.7334 32.0601C50.0856 32.5809 49.3383 33.3127 48.4911 34.2556C47.6498 35.1615 46.8405 36.2868 46.0637 37.6319C45.2925 38.9398 44.7685 40.4743 44.4921 42.2354C44.3919 42.8727 44.4486 43.4655 44.6621 44.0144C44.9136 44.5325 45.2575 44.9927 45.6937 45.3954C46.1623 45.8045 46.6876 46.168 47.2705 46.4853C47.8911 46.7722 48.5078 46.9805 49.1198 47.1105C49.6674 47.2266 50.2664 47.3348 50.9164 47.4343C51.5668 47.5333 52.1687 47.6225 52.7222 47.7013C53.3139 47.7497 53.8058 47.7962 54.1985 47.8407C54.6229 47.8922 54.8836 47.9284 54.9802 47.9489C55.1413 47.9832 55.2775 48.0701 55.3889 48.2099C55.4999 48.3497 55.5349 48.5508 55.4937 48.8129Z" fill="black" stroke="black"/>
<path d="M11.7544 0.80839C11.8217 0.774943 11.8804 0.750409 11.9304 0.734828C11.9977 0.701381 12.0478 0.6858 12.0804 0.688086C12.1458 0.692657 12.2231 0.783895 12.3124 0.961876C12.4179 1.141 12.5282 1.38725 12.6433 1.70058C12.7584 2.01395 12.8786 2.38489 13.0041 2.81346C13.1306 3.22302 13.2474 3.66054 13.3546 4.12598C13.5278 4.90137 13.7221 5.74502 13.9375 6.65691C14.1538 7.54982 14.3697 8.45222 14.585 9.36411C14.8168 10.2771 15.0341 11.151 15.237 11.9857C15.4563 12.8216 15.656 13.5606 15.8361 14.203C16.224 15.5849 16.417 16.2949 16.415 16.3329C16.4131 16.3709 16.3745 16.4827 16.2993 16.6683C16.2395 16.874 16.185 16.9751 16.136 16.9717C16.1033 16.9694 16.027 16.8592 15.907 16.6409C15.335 15.6468 14.8449 14.4962 14.4367 13.1892C14.0449 11.8833 13.6876 10.5417 13.3651 9.16438C13.0425 7.787 12.744 6.42087 12.4695 5.06594C12.195 3.71102 11.9059 2.47913 11.6023 1.37022C11.586 1.36908 11.5788 1.3495 11.5808 1.31148L11.5896 1.14035C11.5994 0.950219 11.6543 0.839552 11.7544 0.80839Z" fill="#FFA500" stroke="#FFA500"/>
<path d="M0.2884 13.3714C0.321149 13.3081 0.351671 13.2563 0.380032 13.2158C0.412747 13.1526 0.441108 13.1121 0.46508 13.0944C0.513023 13.059 0.607143 13.0775 0.747437 13.15C0.899751 13.2135 1.08465 13.3215 1.30213 13.4738C1.51962 13.626 1.76592 13.8158 2.04097 14.0428C2.30846 14.256 2.58136 14.4945 2.85965 14.7583C3.31951 15.201 3.8239 15.6791 4.37293 16.1929C4.9143 16.6926 5.45953 17.1993 6.00852 17.7131C6.56951 18.2179 7.10331 18.7038 7.60989 19.1705C8.1285 19.6285 8.59111 20.03 8.99774 20.375C9.87298 21.1172 10.3182 21.5022 10.3334 21.5301C10.3486 21.558 10.3702 21.6593 10.3983 21.8341C10.446 22.0139 10.4518 22.1171 10.4159 22.1437C10.3919 22.1614 10.2902 22.1289 10.1107 22.0463C9.27529 21.6853 8.42913 21.166 7.57233 20.4885C6.72752 19.8021 5.89145 19.0701 5.06415 18.2926C4.23683 17.5151 3.43131 16.7313 2.64757 15.9411C1.8638 15.151 1.12349 14.4559 0.426567 13.8559C0.414581 13.8647 0.400991 13.8552 0.385795 13.8273L0.317383 13.7019C0.241374 13.5625 0.231713 13.4523 0.2884 13.3714Z" fill="#FFA500" stroke="#FFA500"/>
<path d="M23.1838 1.08255C23.2371 1.07493 23.2828 1.07157 23.3207 1.07245C23.374 1.06483 23.412 1.06571 23.4346 1.07504C23.4799 1.09375 23.5184 1.17637 23.5501 1.32289C23.5931 1.47409 23.6277 1.67371 23.6538 1.92171C23.68 2.16971 23.6998 2.45954 23.7132 2.79119C23.7305 3.10971 23.7362 3.44559 23.7303 3.79889C23.7165 4.38616 23.7057 5.02654 23.6977 5.71999C23.6937 6.40025 23.6878 7.08711 23.6799 7.78056C23.6832 8.47869 23.6833 9.14581 23.6801 9.78193C23.6882 10.4227 23.6995 10.9907 23.7139 11.4859C23.7452 12.5513 23.7568 13.0972 23.7488 13.1235C23.7407 13.1499 23.694 13.2195 23.6085 13.3324C23.5303 13.4631 23.4743 13.5215 23.4403 13.5075C23.4177 13.4981 23.3832 13.4023 23.337 13.2201C23.1081 12.3843 22.9643 11.4576 22.9055 10.4401C22.8582 9.4273 22.8415 8.39755 22.8554 7.35077C22.8694 6.30402 22.8982 5.27088 22.9421 4.25134C22.986 3.2318 22.9981 2.29546 22.9783 1.44232C22.967 1.43763 22.9654 1.42213 22.9734 1.3958L23.0096 1.27736C23.0498 1.14575 23.1079 1.08079 23.1838 1.08255Z" fill="#FFA500" stroke="#FFA500"/>
<path d="M35.4925 0.559398C35.5544 0.576656 35.6061 0.594865 35.6477 0.614103C35.7096 0.63136 35.7512 0.650598 35.7728 0.671855C35.8164 0.714332 35.8295 0.824313 35.8125 1.00176C35.8062 1.18987 35.7735 1.42747 35.7145 1.71464C35.6553 2.00176 35.5741 2.33212 35.4706 2.70572C35.3766 3.06664 35.2636 3.44123 35.1313 3.82947C34.907 4.47298 34.6672 5.17663 34.4118 5.9404C34.1652 6.6916 33.9144 7.44909 33.6589 8.2129C33.4143 8.98734 33.1769 9.72585 32.9473 10.4285C32.7282 11.1418 32.5386 11.7759 32.3784 12.331C32.0339 13.5255 31.8525 14.1354 31.8345 14.1607C31.8161 14.186 31.7395 14.2405 31.6049 14.3244C31.4716 14.4315 31.3888 14.4691 31.3563 14.4372C31.3347 14.4159 31.3305 14.2934 31.3442 14.0694C31.3881 13.0339 31.5587 11.9389 31.8554 10.7843C32.1633 9.64025 32.5114 8.49225 32.8992 7.34021C33.2869 6.18821 33.6864 5.05842 34.0977 3.95092C34.5091 2.84336 34.8555 1.81266 35.1372 0.858751C35.1264 0.848122 35.13 0.830179 35.1483 0.804922L35.2305 0.691208C35.3219 0.564884 35.4093 0.520922 35.4925 0.559398Z" fill="#FFA500" stroke="#FFA500"/>
<path d="M46.0582 8.40386C46.1031 8.43826 46.1398 8.47007 46.1682 8.49937C46.2131 8.53377 46.2416 8.56303 46.2534 8.58722C46.2776 8.6356 46.2609 8.72752 46.2033 8.86299C46.1519 9.01057 46.0671 9.18866 45.9488 9.39727C45.8306 9.60588 45.6842 9.84154 45.5097 10.1042C45.3453 10.3599 45.1625 10.62 44.9611 10.8845C44.6235 11.3214 44.2584 11.8009 43.866 12.323C43.4842 12.8381 43.0968 13.3567 42.7044 13.8788C42.318 14.413 41.9466 14.9212 41.5897 15.4032C41.2389 15.8973 40.9311 16.3384 40.6662 16.7263C40.0963 17.5614 39.8013 17.9859 39.7803 17.9999C39.7597 18.0138 39.685 18.0316 39.5573 18.0532C39.4247 18.0938 39.3497 18.096 39.3317 18.0597C39.3195 18.0355 39.3467 17.9366 39.4129 17.7629C39.7043 16.9538 40.1111 16.1397 40.6331 15.3205C41.1613 14.5135 41.7223 13.7166 42.316 12.93C42.9098 12.1433 43.5074 11.3783 44.109 10.6349C44.7103 9.89152 45.2411 9.18752 45.7016 8.52295C45.6954 8.51084 45.7029 8.49781 45.7235 8.48383L45.8172 8.42089C45.921 8.35099 46.0016 8.34531 46.0582 8.40386Z" fill="#FFA500" stroke="#FFA500"/>
</g>
</g>
<defs>
<clipPath id="clip0_552_30883">
<rect width="56" height="56" fill="white"/>
</clipPath>
</defs>
</svg>
