<svg width="143" height="54" viewBox="0 0 143 54" fill="none" xmlns="http://www.w3.org/2000/svg">
<path d="M43.5148 44.1477C43.5148 44.3462 43.4439 44.559 43.302 44.7859C43.1602 45.0128 42.9616 45.1263 42.7064 45.1263C42.5645 45.1263 42.4085 45.0837 42.2383 44.9986C41.2172 44.5164 40.0258 44.1193 38.6643 43.8073C37.3027 43.5236 35.8986 43.2683 34.452 43.0414C33.0337 42.8145 31.6438 42.5592 30.2822 42.2755C28.9207 42.0202 27.7293 41.6798 26.7082 41.2544C26.8784 41.6231 27.0486 41.921 27.2188 42.1479C27.389 42.3748 27.5308 42.5734 27.6443 42.7436C27.7861 42.9138 27.8995 43.0698 27.9846 43.2116C28.0697 43.3818 28.1123 43.5945 28.1123 43.8498C28.1123 44.0767 28.0272 44.2469 27.857 44.3604C27.6868 44.4739 27.5166 44.5306 27.3464 44.5306C27.006 44.5306 26.6373 44.3178 26.2402 43.8924C25.8714 43.4669 25.4885 42.9279 25.0914 42.2755C24.6942 41.6231 24.2971 40.8998 23.9 40.1056C23.5312 39.283 23.1909 38.4887 22.8788 37.7229C22.5668 36.957 22.2973 36.262 22.0704 35.638C21.8435 34.9856 21.6875 34.4892 21.6024 34.1488L19.7303 26.6603C19.7303 26.5752 19.7444 26.4617 19.7728 26.3199C19.8295 26.1781 19.943 26.0363 20.1132 25.8944C19.9997 25.6675 19.943 25.4264 19.943 25.1711C19.943 24.3769 20.3969 23.6535 21.3046 23.0011C22.2123 22.3204 23.3043 21.7531 24.5808 21.2992C25.8856 20.817 27.2471 20.4482 28.6654 20.193C30.0837 19.9377 31.2892 19.81 32.282 19.81C32.5657 19.81 32.9912 19.8384 33.5585 19.8951C34.1258 19.9235 34.6789 20.0228 35.2179 20.193C35.7852 20.3631 36.2674 20.6326 36.6645 21.0014C37.09 21.3418 37.3027 21.824 37.3027 22.448C37.3027 23.0437 36.9907 23.7245 36.3667 24.4903C35.771 25.2562 35.0193 26.0646 34.1116 26.9156C33.2039 27.7666 32.2253 28.6459 31.1758 29.5536C30.1262 30.4329 29.1476 31.3264 28.2399 32.2341C27.3322 33.1135 26.5664 33.9786 25.9423 34.8296C25.3466 35.6522 25.0488 36.418 25.0488 37.1272C25.0488 37.6661 25.2757 38.1483 25.7296 38.5738C26.2118 38.9709 26.8075 39.3255 27.5166 39.6375C28.2257 39.9496 28.9916 40.219 29.8142 40.4459C30.6652 40.6729 31.4594 40.8572 32.1969 40.9991C32.9628 41.1409 33.6152 41.2544 34.1541 41.3395C34.7215 41.3962 35.0618 41.4246 35.1753 41.4246C35.5441 41.4246 36.1823 41.4671 37.09 41.5522C37.9977 41.6373 38.9196 41.7933 39.8556 42.0202C40.82 42.2188 41.671 42.4883 42.4085 42.8287C43.146 43.169 43.5148 43.6087 43.5148 44.1477ZM35.3029 22.4906C35.3029 22.292 35.2037 22.1218 35.0051 21.98C34.8066 21.8098 34.5371 21.6821 34.1967 21.597C33.8847 21.4836 33.5301 21.4127 33.133 21.3843C32.7642 21.3276 32.3955 21.2992 32.0267 21.2992C31.4594 21.2992 30.7786 21.3843 29.9844 21.5545C29.1902 21.7247 28.3818 21.9374 27.5592 22.1927C26.7649 22.448 26.0274 22.7033 25.3466 22.9586C24.6659 23.2139 24.1695 23.4266 23.8575 23.5968C23.2618 23.9372 22.6803 24.3201 22.113 24.7456C21.5457 25.1427 21.262 25.5399 21.262 25.937C21.262 25.9937 21.3046 26.0504 21.3897 26.1072C21.4747 26.1639 21.5173 26.2632 21.5173 26.405C21.5173 26.5752 21.6024 27.0149 21.7726 27.724C21.9428 28.4048 22.1413 29.1848 22.3683 30.0642C22.5952 30.9151 22.8363 31.7661 23.0916 32.6171C23.3752 33.468 23.6305 34.1488 23.8575 34.6594C25.0204 33.0142 26.2685 31.5817 27.6017 30.362C28.9632 29.1139 30.2113 28.0218 31.346 27.0858C32.4806 26.1214 33.4166 25.2846 34.1541 24.5754C34.92 23.8379 35.3029 23.143 35.3029 22.4906ZM60.7349 33.3404C60.7349 33.851 60.4938 34.4892 60.0115 35.2551C59.5577 35.9926 58.9337 36.7159 58.1394 37.425C57.3452 38.1342 56.4233 38.744 55.3738 39.2546C54.3243 39.7368 53.2322 39.9779 52.0976 39.9779C51.587 39.9779 51.048 39.8928 50.4807 39.7226C49.9134 39.5524 49.3603 39.3113 48.8213 38.9993C48.2824 38.6589 47.8002 38.2618 47.3747 37.808C46.9492 37.3257 46.6372 36.7868 46.4386 36.1911C46.2684 36.3613 46.0557 36.645 45.8004 37.0421C45.5735 37.4392 45.3182 37.8505 45.0345 38.276C44.7509 38.6731 44.4389 39.0277 44.0985 39.3397C43.7581 39.6233 43.4035 39.7652 43.0348 39.7652C42.666 39.7652 42.354 39.5808 42.0987 39.212C41.8718 38.8149 41.6874 38.3894 41.5456 37.9356C41.4038 37.4534 41.3045 36.9995 41.2477 36.5741C41.191 36.1486 41.1626 35.9075 41.1626 35.8507C41.1626 35.5103 41.2619 34.8721 41.4605 33.9361C41.659 32.9716 41.9569 31.9788 42.354 30.9577C42.7511 29.9365 43.2475 29.0288 43.8432 28.2346C44.4672 27.4403 45.1906 27.0432 46.0132 27.0432C46.3252 27.0432 46.5237 27.1851 46.6088 27.4687C46.7223 27.724 46.779 27.9793 46.779 28.2346V29.511C46.9209 29.6245 47.0627 29.7096 47.2045 29.7663C47.3747 29.7947 47.5165 29.8514 47.63 29.9365C47.7718 29.9932 47.8711 30.0925 47.9278 30.2344C48.0129 30.3762 48.0555 30.6031 48.0555 30.9151C48.0555 31.1137 48.0413 31.2981 48.0129 31.4683C47.9846 31.6101 47.9704 31.7519 47.9704 31.8937C47.9704 32.6312 48.0271 33.3546 48.1406 34.0637C48.254 34.7728 48.481 35.4111 48.8213 35.9784C49.1617 36.5173 49.6298 36.9712 50.2254 37.3399C50.8211 37.6803 51.6153 37.8505 52.6081 37.8505C53.8562 37.8505 54.9058 37.5952 55.7567 37.0846C56.6361 36.5457 57.3594 35.9642 57.9267 35.3402C58.5224 34.6877 58.9904 34.1063 59.3308 33.5957C59.6712 33.0567 59.9548 32.7873 60.1817 32.7873C60.5505 32.7873 60.7349 32.9716 60.7349 33.3404ZM45.8004 31.4683C45.8004 31.3548 45.772 31.2555 45.7153 31.1704C45.6586 31.057 45.6302 30.9577 45.6302 30.8726C45.6302 30.7591 45.6586 30.6598 45.7153 30.5747C45.772 30.4896 45.8004 30.3762 45.8004 30.2344C45.8004 30.1493 45.772 30.0925 45.7153 30.0642C45.6586 30.0074 45.6302 29.9507 45.6302 29.894C45.3749 29.9507 45.1055 30.1918 44.8218 30.6173C44.5665 31.0428 44.3112 31.5392 44.0559 32.1065C43.829 32.6738 43.6446 33.2553 43.5028 33.851C43.361 34.4183 43.2901 34.8863 43.2901 35.2551C43.2901 35.4536 43.3468 35.7798 43.4603 36.2337C43.5737 36.6875 43.7014 36.9854 43.8432 37.1272C44.3254 36.1344 44.7651 35.17 45.1622 34.2339C45.5877 33.2978 45.8004 32.376 45.8004 31.4683ZM68.2363 27.2134C68.2363 27.2985 68.1654 27.6673 68.0236 28.3197C67.8818 28.9721 67.7399 29.7096 67.5981 30.5322C67.513 31.0144 67.3712 31.7377 67.1726 32.7022C67.0024 33.6382 66.9173 35.0707 66.9173 36.9995C66.9173 37.0563 66.9032 37.2123 66.8748 37.4676C66.8748 37.6945 66.8322 37.9356 66.7471 38.1909C66.6904 38.4462 66.5911 38.6873 66.4493 38.9142C66.3075 39.1128 66.0947 39.212 65.8111 39.212C65.5558 39.212 65.2721 39.0986 64.9601 38.8717C64.251 38.3611 63.5986 37.7654 63.0029 37.0846C62.4072 36.4039 61.8966 35.6664 61.4712 34.8721C61.0457 34.0495 60.7195 33.1986 60.4925 32.3192C60.2656 31.4399 60.1522 30.5464 60.1522 29.6387C60.1522 29.5252 60.2231 29.4259 60.3649 29.3408C60.5351 29.2274 60.6627 29.1706 60.7478 29.1706C61.1733 29.1706 61.4995 29.4118 61.7264 29.894C61.9817 30.3762 62.2228 30.9577 62.4498 31.6384C62.7051 32.3192 62.9887 33.0425 63.3007 33.8084C63.6411 34.5459 64.1375 35.1841 64.7899 35.7231C64.875 35.6096 64.9459 35.3969 65.0027 35.0849C65.0594 34.7728 65.1019 34.5034 65.1303 34.2764C65.1587 34.0779 65.2012 33.695 65.258 33.1276C65.3147 32.532 65.3714 31.9079 65.4281 31.2555C65.5132 30.6031 65.57 29.9791 65.5983 29.3834C65.6551 28.7877 65.6834 28.3764 65.6834 28.1495C65.6834 27.9793 65.6976 27.7807 65.726 27.5538C65.7543 27.3269 65.8111 27.1141 65.8962 26.9156C66.0096 26.717 66.1515 26.5468 66.3217 26.405C66.4919 26.2632 66.7188 26.1923 67.0024 26.1923C67.1443 26.1923 67.3854 26.2915 67.7258 26.4901C68.0661 26.6603 68.2363 26.9014 68.2363 27.2134ZM73.2241 22.6182C73.2241 22.6749 73.1248 22.7884 72.9263 22.9586C72.7277 23.1288 72.4866 23.3132 72.203 23.5117C71.9477 23.6819 71.6782 23.8379 71.3946 23.9798C71.1109 24.1216 70.884 24.1925 70.7138 24.1925C70.6003 24.1925 70.4443 24.1925 70.2457 24.1925C70.0756 24.1641 69.8912 24.1074 69.6926 24.0223C69.5224 23.9372 69.3664 23.8237 69.2246 23.6819C69.0828 23.5117 69.0118 23.299 69.0118 23.0437C69.0118 22.6466 69.1537 22.2778 69.4373 21.9374C69.721 21.5687 70.0897 21.3843 70.5436 21.3843C70.6287 21.3843 70.8131 21.4269 71.0967 21.512C71.4087 21.5687 71.7208 21.6538 72.0328 21.7672C72.3448 21.8807 72.6143 22.0083 72.8412 22.1502C73.0965 22.292 73.2241 22.448 73.2241 22.6182ZM74.6282 38.5313C74.6282 38.7298 74.4722 38.9 74.1602 39.0419C73.8765 39.1837 73.6638 39.2546 73.522 39.2546C73.2383 39.2546 72.983 39.0702 72.7561 38.7015C72.5292 38.3327 72.3306 37.9072 72.1604 37.425C71.9902 36.9428 71.8484 36.489 71.7349 36.0635C71.6215 35.6096 71.5364 35.2976 71.4796 35.1274C71.3946 34.8438 71.2811 34.5034 71.1393 34.1063C70.9974 33.7091 70.8556 33.3262 70.7138 32.9574C70.6003 32.5887 70.501 32.2625 70.4159 31.9788C70.3308 31.6952 70.2883 31.5392 70.2883 31.5108C70.2883 31.1137 70.3592 30.7449 70.501 30.4045C70.6712 30.0642 70.8698 29.894 71.0967 29.894C71.352 29.894 71.6215 30.0925 71.9051 30.4896C72.1888 30.8868 72.4583 31.3973 72.7135 32.0214C72.9972 32.6171 73.2525 33.2836 73.4794 34.0212C73.7063 34.7303 73.9049 35.4111 74.0751 36.0635C74.2453 36.6875 74.3729 37.2406 74.458 37.7229C74.5715 38.1767 74.6282 38.4462 74.6282 38.5313ZM91.1486 37.6378C91.1486 37.8647 91.1202 38.0349 91.0635 38.1483C91.0068 38.2334 90.8649 38.3044 90.638 38.3611C90.3827 38.4462 90.0565 38.5455 89.6594 38.6589C89.2907 38.744 88.8794 38.8433 88.4255 38.9568C87.9717 39.0419 87.5036 39.127 87.0214 39.212C86.5676 39.2688 86.1421 39.2971 85.745 39.2971C85.2628 39.2971 84.7238 39.2688 84.1281 39.212C83.5608 39.1553 83.0077 39.0702 82.4687 38.9568C81.9298 38.8149 81.4334 38.6731 80.9796 38.5313C80.5541 38.3611 80.2421 38.1625 80.0435 37.9356C80.1853 38.5313 80.313 39.127 80.4264 39.7226C80.5399 40.3183 80.625 40.914 80.6817 41.5097C80.6817 41.6515 80.6392 41.7791 80.5541 41.8926C80.4973 41.9777 80.313 42.0202 80.0009 42.0202C79.8591 42.0202 79.7173 41.9919 79.5755 41.9351C79.462 41.85 79.3627 41.694 79.2776 41.4671C79.0223 40.8998 78.8096 40.375 78.6394 39.8928C78.4692 39.3822 78.3132 38.8717 78.1714 38.3611C78.0579 37.8505 77.9303 37.3116 77.7884 36.7442C77.6466 36.1769 77.4764 35.5529 77.2779 34.8721C76.9658 33.7659 76.6396 32.5887 76.2992 31.3406C75.9589 30.0642 75.6468 28.8586 75.3632 27.724C75.0795 26.561 74.8526 25.5399 74.6824 24.6605C74.5122 23.7528 74.4271 23.1146 74.4271 22.7459C74.4271 22.5757 74.4271 22.3487 74.4271 22.0651C74.4555 21.7814 74.498 21.512 74.5548 21.2567C74.6399 20.973 74.7391 20.7461 74.8526 20.5759C74.9944 20.3773 75.1788 20.278 75.4057 20.278C75.5476 20.278 75.6894 20.505 75.8312 20.9588C76.0014 21.3843 76.1432 21.8665 76.2567 22.4055C76.3985 22.916 76.512 23.4124 76.5971 23.8947C76.7105 24.3485 76.7673 24.5896 76.7673 24.618C76.8807 25.242 77.0084 25.937 77.1502 26.7028C77.3204 27.4403 77.4906 28.192 77.6608 28.9579C77.831 29.7238 78.0154 30.4613 78.2139 31.1704C78.4125 31.8512 78.6252 32.4327 78.8521 32.9149C78.8805 32.6312 78.9798 32.2199 79.15 31.681C79.3202 31.1421 79.5471 30.5606 79.8308 29.9365C80.1144 29.3125 80.4264 28.6742 80.7668 28.0218C81.1356 27.3411 81.5043 26.7312 81.8731 26.1923C82.2702 25.6533 82.6531 25.2137 83.0219 24.8733C83.419 24.5329 83.7877 24.3627 84.1281 24.3627C84.6671 24.3627 85.0358 24.4336 85.2344 24.5754C85.4613 24.7173 85.5748 24.8875 85.5748 25.086C85.5748 25.2562 85.3337 25.5966 84.8515 26.1072C84.3692 26.5894 83.8303 27.2418 83.2346 28.0644C82.6389 28.8586 82.1 29.8089 81.6178 30.9151C81.1356 31.993 80.8945 33.1986 80.8945 34.5317C80.8945 35.0139 81.0221 35.4394 81.2774 35.8082C81.561 36.1486 81.9156 36.4322 82.3411 36.6591C82.7949 36.8861 83.2913 37.0704 83.8303 37.2123C84.3976 37.3257 84.9507 37.3825 85.4897 37.3825C85.9719 37.3825 86.4967 37.3683 87.064 37.3399C87.6313 37.3116 88.156 37.2832 88.6383 37.2548C89.1488 37.1981 89.5743 37.1555 89.9147 37.1272C90.2835 37.0988 90.5104 37.0846 90.5955 37.0846C90.7373 37.0846 90.8649 37.1272 90.9784 37.2123C91.0919 37.2974 91.1486 37.4392 91.1486 37.6378ZM94.2307 22.6182C94.2307 22.6749 94.1314 22.7884 93.9329 22.9586C93.7343 23.1288 93.4932 23.3132 93.2095 23.5117C92.9542 23.6819 92.6848 23.8379 92.4011 23.9798C92.1175 24.1216 91.8905 24.1925 91.7203 24.1925C91.6069 24.1925 91.4509 24.1925 91.2523 24.1925C91.0821 24.1641 90.8977 24.1074 90.6992 24.0223C90.529 23.9372 90.373 23.8237 90.2312 23.6819C90.0893 23.5117 90.0184 23.299 90.0184 23.0437C90.0184 22.6466 90.1602 22.2778 90.4439 21.9374C90.7275 21.5687 91.0963 21.3843 91.5501 21.3843C91.6352 21.3843 91.8196 21.4269 92.1033 21.512C92.4153 21.5687 92.7273 21.6538 93.0393 21.7672C93.3514 21.8807 93.6208 22.0083 93.8478 22.1502C94.103 22.292 94.2307 22.448 94.2307 22.6182ZM95.6348 38.5313C95.6348 38.7298 95.4788 38.9 95.1668 39.0419C94.8831 39.1837 94.6704 39.2546 94.5285 39.2546C94.2449 39.2546 93.9896 39.0702 93.7627 38.7015C93.5357 38.3327 93.3372 37.9072 93.167 37.425C92.9968 36.9428 92.855 36.489 92.7415 36.0635C92.628 35.6096 92.5429 35.2976 92.4862 35.1274C92.4011 34.8438 92.2877 34.5034 92.1458 34.1063C92.004 33.7091 91.8622 33.3262 91.7203 32.9574C91.6069 32.5887 91.5076 32.2625 91.4225 31.9788C91.3374 31.6952 91.2949 31.5392 91.2949 31.5108C91.2949 31.1137 91.3658 30.7449 91.5076 30.4045C91.6778 30.0642 91.8764 29.894 92.1033 29.894C92.3586 29.894 92.628 30.0925 92.9117 30.4896C93.1954 30.8868 93.4648 31.3973 93.7201 32.0214C94.0038 32.6171 94.2591 33.2836 94.486 34.0212C94.7129 34.7303 94.9115 35.4111 95.0817 36.0635C95.2519 36.6875 95.3795 37.2406 95.4646 37.7229C95.5781 38.1767 95.6348 38.4462 95.6348 38.5313ZM107.092 29.2132C107.092 29.4118 107.007 29.5819 106.837 29.7238C106.666 29.8372 106.468 29.9365 106.241 30.0216C106.014 30.1067 105.787 30.1776 105.56 30.2344C105.333 30.2627 105.149 30.2769 105.007 30.2769C104.582 30.2769 104.298 30.2485 104.156 30.1918C104.014 30.1351 103.901 30.1067 103.816 30.1067C103.107 30.1067 102.539 30.1634 102.114 30.2769C101.688 30.3904 101.348 30.5747 101.093 30.83C100.866 31.0853 100.71 31.4115 100.625 31.8086C100.568 32.1774 100.539 32.6312 100.539 33.1702C100.539 34.0779 100.568 34.8012 100.625 35.3402C100.71 35.8791 100.781 36.3188 100.837 36.6591C100.922 36.9995 100.993 37.269 101.05 37.4676C101.135 37.6378 101.178 37.808 101.178 37.9781C101.178 38.2051 101.05 38.4462 100.795 38.7015C100.568 38.9568 100.355 39.0844 100.157 39.0844C99.8162 39.0844 99.5041 38.7866 99.2205 38.1909C98.9652 37.5668 98.7383 36.8435 98.5397 36.0209C98.3695 35.17 98.2277 34.3332 98.1142 33.5106C98.0008 32.688 97.944 32.0639 97.944 31.6384C97.944 31.1562 97.9866 30.7024 98.0717 30.2769C98.1568 29.8231 98.2702 29.4401 98.4121 29.1281C98.5539 28.7877 98.7099 28.5182 98.8801 28.3197C99.0503 28.1211 99.2205 28.0218 99.3907 28.0218C99.5325 28.0218 99.646 28.0786 99.7311 28.192C99.8162 28.2771 99.8871 28.3906 99.9438 28.5324C100.001 28.6459 100.057 28.7593 100.114 28.8728C100.199 28.9579 100.298 29.0005 100.412 29.0005C100.667 29.0005 101.078 28.8728 101.646 28.6175C102.213 28.3622 102.908 28.2346 103.731 28.2346C104.496 28.2346 105.064 28.2629 105.433 28.3197C105.83 28.348 106.213 28.4331 106.581 28.575C106.666 28.6033 106.766 28.6742 106.879 28.7877C107.021 28.8728 107.092 29.0146 107.092 29.2132ZM129.447 33.3404C129.447 33.851 129.206 34.4892 128.724 35.2551C128.27 35.9926 127.646 36.7159 126.852 37.425C126.057 38.1342 125.136 38.744 124.086 39.2546C123.036 39.7368 121.944 39.9779 120.81 39.9779C120.299 39.9779 119.76 39.8928 119.193 39.7226C118.626 39.5524 118.072 39.3113 117.534 38.9993C116.995 38.6589 116.512 38.2618 116.087 37.808C115.661 37.3257 115.349 36.7868 115.151 36.1911C114.981 36.3613 114.768 36.645 114.513 37.0421C114.286 37.4392 114.03 37.8505 113.747 38.276C113.463 38.6731 113.151 39.0277 112.811 39.3397C112.47 39.6233 112.116 39.7652 111.747 39.7652C111.378 39.7652 111.066 39.5808 110.811 39.212C110.584 38.8149 110.4 38.3894 110.258 37.9356C110.116 37.4534 110.017 36.9995 109.96 36.5741C109.903 36.1486 109.875 35.9075 109.875 35.8507C109.875 35.5103 109.974 34.8721 110.173 33.9361C110.371 32.9716 110.669 31.9788 111.066 30.9577C111.463 29.9365 111.96 29.0288 112.555 28.2346C113.179 27.4403 113.903 27.0432 114.725 27.0432C115.037 27.0432 115.236 27.1851 115.321 27.4687C115.434 27.724 115.491 27.9793 115.491 28.2346V29.511C115.633 29.6245 115.775 29.7096 115.917 29.7663C116.087 29.7947 116.229 29.8514 116.342 29.9365C116.484 29.9932 116.583 30.0925 116.64 30.2344C116.725 30.3762 116.768 30.6031 116.768 30.9151C116.768 31.1137 116.753 31.2981 116.725 31.4683C116.697 31.6101 116.683 31.7519 116.683 31.8937C116.683 32.6312 116.739 33.3546 116.853 34.0637C116.966 34.7728 117.193 35.4111 117.534 35.9784C117.874 36.5173 118.342 36.9712 118.938 37.3399C119.533 37.6803 120.328 37.8505 121.32 37.8505C122.568 37.8505 123.618 37.5952 124.469 37.0846C125.348 36.5457 126.072 35.9642 126.639 35.3402C127.235 34.6877 127.703 34.1063 128.043 33.5957C128.383 33.0567 128.667 32.7873 128.894 32.7873C129.263 32.7873 129.447 32.9716 129.447 33.3404ZM114.513 31.4683C114.513 31.3548 114.484 31.2555 114.428 31.1704C114.371 31.057 114.342 30.9577 114.342 30.8726C114.342 30.7591 114.371 30.6598 114.428 30.5747C114.484 30.4896 114.513 30.3762 114.513 30.2344C114.513 30.1493 114.484 30.0925 114.428 30.0642C114.371 30.0074 114.342 29.9507 114.342 29.894C114.087 29.9507 113.818 30.1918 113.534 30.6173C113.279 31.0428 113.023 31.5392 112.768 32.1065C112.541 32.6738 112.357 33.2553 112.215 33.851C112.073 34.4183 112.002 34.8863 112.002 35.2551C112.002 35.4536 112.059 35.7798 112.172 36.2337C112.286 36.6875 112.414 36.9854 112.555 37.1272C113.038 36.1344 113.477 35.17 113.874 34.2339C114.3 33.2978 114.513 32.376 114.513 31.4683ZM141.459 36.957C141.459 37.1272 141.402 37.2974 141.288 37.4676C141.175 37.6378 141.033 37.7938 140.863 37.9356C140.721 38.0774 140.551 38.2051 140.352 38.3185C140.182 38.4036 140.026 38.4462 139.884 38.4462C139.402 38.4462 138.778 38.3469 138.012 38.1483C137.275 37.9214 136.679 37.581 136.225 37.1272C135.743 36.645 135.318 36.0777 134.949 35.4252C134.58 34.7445 134.169 33.7517 133.715 32.4469C133.403 33.695 133.034 34.9289 132.609 36.1486C132.211 37.3683 131.559 38.4887 130.651 39.5099C130.595 39.5666 130.51 39.595 130.396 39.595C130.198 39.595 129.985 39.4957 129.758 39.2971C129.531 39.0986 129.417 38.9 129.417 38.7015C129.417 38.5029 129.389 38.0491 129.332 37.3399C129.304 36.6024 129.261 35.794 129.205 34.9147C129.148 34.007 129.091 33.0993 129.035 32.1916C129.006 31.2555 128.992 30.4896 128.992 29.894C128.992 29.6103 129.006 29.2416 129.035 28.7877C129.063 28.3055 129.148 27.8942 129.29 27.5538C129.318 27.4971 129.417 27.3836 129.588 27.2134C129.786 27.0432 129.999 26.9581 130.226 26.9581C130.424 26.9581 130.538 27.0858 130.566 27.3411C130.595 27.5964 130.609 27.88 130.609 28.192V34.9147C130.609 35.0565 130.623 35.2551 130.651 35.5103C130.708 35.7656 130.779 35.95 130.864 36.0635C131.176 35.3827 131.46 34.5885 131.715 33.6808C131.999 32.7447 132.268 31.8654 132.524 31.0428C132.779 30.1918 133.034 29.4827 133.289 28.9154C133.545 28.3197 133.8 28.0218 134.055 28.0218C134.339 28.0218 134.566 28.0786 134.736 28.192C134.906 28.3055 135.048 28.5324 135.162 28.8728C135.303 29.6954 135.417 30.4329 135.502 31.0853C135.587 31.7094 135.686 32.2767 135.8 32.7873C135.942 33.2978 136.126 33.78 136.353 34.2339C136.608 34.6594 136.949 35.0565 137.374 35.4252C137.771 35.794 138.211 36.0635 138.693 36.2337C139.204 36.4039 139.643 36.489 140.012 36.489C140.182 36.489 140.367 36.4606 140.565 36.4039C140.764 36.3188 140.906 36.2762 140.991 36.2762C141.104 36.2762 141.203 36.3755 141.288 36.5741C141.402 36.7726 141.459 36.9003 141.459 36.957Z" fill="black"/>
<path d="M11.9528 9.4485C12.0057 9.41351 12.0524 9.38642 12.0929 9.36722C12.1458 9.33224 12.1864 9.31304 12.2145 9.30962C12.2708 9.3028 12.3489 9.35762 12.4488 9.4741C12.5627 9.58887 12.6896 9.75207 12.8295 9.9637C12.9695 10.1753 13.1216 10.4283 13.2858 10.7227C13.4484 11.003 13.6065 11.3053 13.7601 11.6296C14.0114 12.1706 14.2898 12.7583 14.5952 13.3928C14.899 14.0131 15.2036 14.6405 15.5091 15.275C15.8287 15.9077 16.1308 16.514 16.4153 17.0938C16.714 17.6719 16.983 18.1822 17.2223 18.6247C17.7377 19.5766 17.9971 20.0666 18.0006 20.0947C18.004 20.1229 17.986 20.2108 17.9468 20.3584C17.9233 20.5184 17.8905 20.601 17.8482 20.6061C17.8201 20.6095 17.7403 20.5406 17.6089 20.3994C16.9885 19.7602 16.417 18.9937 15.8944 18.0999C15.3858 17.2043 14.902 16.2772 14.4429 15.3185C13.9838 14.3598 13.5467 13.4056 13.1316 12.4558C12.7165 11.5061 12.3054 10.6487 11.8984 9.88369C11.8843 9.8854 11.8755 9.87217 11.8721 9.84401L11.8568 9.71729C11.8397 9.5765 11.8717 9.4869 11.9528 9.4485Z" fill="#FFA500"/>
<path d="M3.91776 20.3941C3.93719 20.3427 3.95628 20.3 3.97502 20.2659C3.99445 20.2145 4.01319 20.1805 4.03125 20.1638C4.06736 20.1304 4.15004 20.1293 4.27928 20.1605C4.41755 20.1834 4.58953 20.2337 4.79522 20.3114C5.00091 20.3891 5.23613 20.4897 5.5009 20.6133C5.75732 20.7278 6.02175 20.86 6.29417 21.01C6.74519 21.2627 7.23895 21.5344 7.77545 21.8253C8.30361 22.1071 8.83594 22.3935 9.37244 22.6843C9.91797 22.9668 10.4378 23.2396 10.9319 23.5027C11.4351 23.7574 11.8829 23.9796 12.2756 24.169C13.1206 24.5765 13.5515 24.7892 13.5681 24.8073C13.5848 24.8253 13.6168 24.8962 13.6641 25.0198C13.7288 25.1442 13.7476 25.2188 13.7205 25.2439C13.7025 25.2606 13.6114 25.2526 13.4475 25.22C12.6873 25.0856 11.8969 24.8369 11.0762 24.4739C10.2645 24.1026 9.45421 23.6965 8.64529 23.2558C7.83637 22.815 7.04516 22.3662 6.27166 21.9094C5.49817 21.4526 4.77438 21.0586 4.1003 20.7275C4.09127 20.7359 4.07841 20.731 4.06173 20.713L3.98666 20.6317C3.90324 20.5414 3.88028 20.4622 3.91776 20.3941Z" fill="#FFA500"/>
<path d="M21.6552 8.1219C21.6996 8.10803 21.7381 8.09846 21.7705 8.09319C21.8149 8.07932 21.8474 8.07405 21.8679 8.07738C21.909 8.08404 21.9528 8.13857 21.9994 8.24096C22.0563 8.34502 22.1125 8.48585 22.168 8.66343C22.2234 8.84102 22.279 9.05024 22.3348 9.2911C22.3922 9.52168 22.442 9.76684 22.4842 10.0266C22.551 10.4589 22.6274 10.9296 22.7134 11.4388C22.801 11.9377 22.8878 12.4417 22.9738 12.9509C23.07 13.4618 23.1593 13.9504 23.2417 14.4168C23.3343 14.8849 23.4199 15.2992 23.4984 15.6597C23.6676 16.4352 23.7505 16.8333 23.7472 16.8538C23.7439 16.8743 23.7133 16.9326 23.6556 17.0286C23.6065 17.1365 23.5665 17.188 23.5357 17.183C23.5152 17.1797 23.473 17.1149 23.4092 16.9886C23.1024 16.412 22.8559 15.7556 22.6698 15.0195C22.4939 14.285 22.3419 13.5333 22.2138 12.7644C22.0857 11.9955 21.9721 11.2342 21.8731 10.4806C21.7741 9.72696 21.6592 9.03923 21.5283 8.4174C21.518 8.41573 21.5145 8.40463 21.5179 8.3841L21.5328 8.2917C21.5495 8.18904 21.5903 8.13244 21.6552 8.1219Z" fill="#FFA500"/>
<path d="M32.0817 5.54554C32.1366 5.54856 32.1831 5.55387 32.2212 5.56147C32.2761 5.56449 32.3142 5.57209 32.3356 5.58427C32.3783 5.60865 32.4043 5.68715 32.4135 5.81978C32.4334 5.95851 32.4373 6.13765 32.4252 6.3572C32.4131 6.57675 32.3881 6.83137 32.3502 7.12107C32.3183 7.40009 32.2719 7.69207 32.2111 7.99703C32.1062 8.50325 31.996 9.05598 31.8804 9.65521C31.771 10.2438 31.6585 10.8377 31.543 11.4369C31.4381 12.0422 31.3347 12.6201 31.2329 13.1705C31.1417 13.7271 31.065 14.2211 31.0027 14.6526C30.8691 15.5811 30.7961 16.0561 30.784 16.0774C30.7718 16.0988 30.7139 16.1507 30.6102 16.2331C30.5112 16.3322 30.4457 16.3726 30.4136 16.3544C30.3923 16.3422 30.3724 16.253 30.354 16.0868C30.253 15.3215 30.2518 14.4929 30.3504 13.601C30.4597 12.7151 30.6025 11.8201 30.7788 10.9159C30.9552 10.0117 31.1445 9.122 31.3468 8.24677C31.5491 7.37154 31.7065 6.56265 31.8189 5.82011C31.8082 5.81402 31.809 5.80029 31.8211 5.77894L31.876 5.68286C31.9369 5.57611 32.0055 5.53033 32.0817 5.54554Z" fill="#FFA500"/>
<path d="M41.902 9.79984C41.9448 9.81805 41.9803 9.83567 42.0084 9.85269C42.0512 9.8709 42.0793 9.88793 42.0928 9.90377C42.1198 9.93546 42.1178 10.0054 42.087 10.1136C42.0628 10.2297 42.0144 10.3734 41.9415 10.5446C41.8687 10.7158 41.7754 10.9111 41.6618 11.1307C41.5561 11.3435 41.4351 11.5625 41.2989 11.7876C41.0696 12.1602 40.8228 12.5682 40.5582 13.0117C40.3017 13.4484 40.0411 13.8885 39.7766 14.332C39.5188 14.7834 39.2702 15.2135 39.0306 15.6221C38.7978 16.0386 38.5945 16.4096 38.4206 16.7349C38.0469 17.4352 37.8521 17.7921 37.8362 17.8056C37.8204 17.8191 37.7594 17.8437 37.6532 17.8794C37.5458 17.9297 37.482 17.943 37.4618 17.9193C37.4483 17.9034 37.4582 17.8267 37.4914 17.6892C37.6315 17.0512 37.8691 16.3916 38.2045 15.7104C38.5466 15.037 38.918 14.3661 39.3187 13.6974C39.7194 13.0288 40.1263 12.3755 40.5393 11.7374C40.9523 11.0993 41.3105 10.501 41.6138 9.9426C41.6071 9.93467 41.6116 9.92397 41.6274 9.9105L41.6987 9.84983C41.778 9.78244 41.8457 9.76578 41.902 9.79984Z" fill="#FFA500"/>
</svg>
